<?xml version="1.0" encoding="UTF-8" standalone="no"?>
<!DOCTYPE svg PUBLIC "-//W3C//DTD SVG 1.1//EN"
 "http://www.w3.org/Graphics/SVG/1.1/DTD/svg11.dtd">
<!-- Generated by graphviz version 2.47.2 (20210527.0053)
 -->
<!-- Pages: 1 -->
<svg width="2461pt" height="548pt"
 viewBox="0.00 0.00 2460.54 548.00" xmlns="http://www.w3.org/2000/svg" xmlns:xlink="http://www.w3.org/1999/xlink">
<g id="graph0" class="graph" transform="scale(1 1) rotate(0) translate(4 544)">
<polygon fill="white" stroke="transparent" points="-4,4 -4,-544 2456.54,-544 2456.54,4 -4,4"/>
<!-- [root] data.vault_policy_document.kv_rw_policy (expand) -->
<g id="node1" class="node">
<title>[root] data.vault_policy_document.kv_rw_policy (expand)</title>
<polygon fill="none" stroke="black" points="1396.01,-108 1146.01,-108 1146.01,-72 1396.01,-72 1396.01,-108"/>
<text text-anchor="middle" x="1271.01" y="-86.3" font-family="Times,serif" font-size="14.00">data.vault_policy_document.kv_rw_policy</text>
</g>
<!-- [root] provider[&quot;registry.terraform.io/hashicorp/vault&quot;] -->
<g id="node10" class="node">
<title>[root] provider[&quot;registry.terraform.io/hashicorp/vault&quot;]</title>
<polygon fill="none" stroke="black" points="1271.01,-36 1012.95,-18 1271.01,0 1529.08,-18 1271.01,-36"/>
<text text-anchor="middle" x="1271.01" y="-14.3" font-family="Times,serif" font-size="14.00">provider[&quot;registry.terraform.io/hashicorp/vault&quot;]</text>
</g>
<!-- [root] data.vault_policy_document.kv_rw_policy (expand)&#45;&gt;[root] provider[&quot;registry.terraform.io/hashicorp/vault&quot;] -->
<g id="edge1" class="edge">
<title>[root] data.vault_policy_document.kv_rw_policy (expand)&#45;&gt;[root] provider[&quot;registry.terraform.io/hashicorp/vault&quot;]</title>
<path fill="none" stroke="black" d="M1271.01,-71.7C1271.01,-63.98 1271.01,-54.71 1271.01,-46.11"/>
<polygon fill="black" stroke="black" points="1274.51,-46.1 1271.01,-36.1 1267.51,-46.1 1274.51,-46.1"/>
</g>
<!-- [root] var.kv_mount_path -->
<g id="node15" class="node">
<title>[root] var.kv_mount_path</title>
<polygon fill="none" stroke="black" points="1663.01,-36 1547.01,-36 1547.01,0 1669.01,0 1669.01,-30 1663.01,-36"/>
<polyline fill="none" stroke="black" points="1663.01,-36 1663.01,-30 "/>
<polyline fill="none" stroke="black" points="1669.01,-30 1663.01,-30 "/>
<text text-anchor="middle" x="1608.01" y="-14.3" font-family="Times,serif" font-size="14.00">var.kv_mount_path</text>
</g>
<!-- [root] data.vault_policy_document.kv_rw_policy (expand)&#45;&gt;[root] var.kv_mount_path -->
<g id="edge2" class="edge">
<title>[root] data.vault_policy_document.kv_rw_policy (expand)&#45;&gt;[root] var.kv_mount_path</title>
<path fill="none" stroke="black" d="M1361.74,-71.98C1410.97,-62.51 1473.11,-50.18 1537.1,-36.16"/>
<polygon fill="black" stroke="black" points="1537.95,-39.55 1546.97,-33.99 1536.45,-32.72 1537.95,-39.55"/>
</g>
<!-- [root] data.vault_policy_document.postgres_creds_policy (expand) -->
<g id="node2" class="node">
<title>[root] data.vault_policy_document.postgres_creds_policy (expand)</title>
<polygon fill="none" stroke="black" points="1118.01,-108 822.01,-108 822.01,-72 1118.01,-72 1118.01,-108"/>
<text text-anchor="middle" x="970.01" y="-86.3" font-family="Times,serif" font-size="14.00">data.vault_policy_document.postgres_creds_policy</text>
</g>
<!-- [root] data.vault_policy_document.postgres_creds_policy (expand)&#45;&gt;[root] provider[&quot;registry.terraform.io/hashicorp/vault&quot;] -->
<g id="edge3" class="edge">
<title>[root] data.vault_policy_document.postgres_creds_policy (expand)&#45;&gt;[root] provider[&quot;registry.terraform.io/hashicorp/vault&quot;]</title>
<path fill="none" stroke="black" d="M1043.26,-71.97C1092.49,-60.52 1156.84,-45.55 1204.58,-34.45"/>
<polygon fill="black" stroke="black" points="1205.56,-37.82 1214.5,-32.14 1203.97,-31 1205.56,-37.82"/>
</g>
<!-- [root] var.postgres_mount_path -->
<g id="node17" class="node">
<title>[root] var.postgres_mount_path</title>
<polygon fill="none" stroke="black" points="989.01,-36 841.01,-36 841.01,0 995.01,0 995.01,-30 989.01,-36"/>
<polyline fill="none" stroke="black" points="989.01,-36 989.01,-30 "/>
<polyline fill="none" stroke="black" points="995.01,-30 989.01,-30 "/>
<text text-anchor="middle" x="918.01" y="-14.3" font-family="Times,serif" font-size="14.00">var.postgres_mount_path</text>
</g>
<!-- [root] data.vault_policy_document.postgres_creds_policy (expand)&#45;&gt;[root] var.postgres_mount_path -->
<g id="edge4" class="edge">
<title>[root] data.vault_policy_document.postgres_creds_policy (expand)&#45;&gt;[root] var.postgres_mount_path</title>
<path fill="none" stroke="black" d="M957.16,-71.7C950.99,-63.39 943.48,-53.28 936.69,-44.14"/>
<polygon fill="black" stroke="black" points="939.49,-42.04 930.72,-36.1 933.87,-46.22 939.49,-42.04"/>
</g>
<!-- [root] local_file.nginx_role_id (expand) -->
<g id="node3" class="node">
<title>[root] local_file.nginx_role_id (expand)</title>
<polygon fill="none" stroke="black" points="421.01,-396 275.01,-396 275.01,-360 421.01,-360 421.01,-396"/>
<text text-anchor="middle" x="348.01" y="-374.3" font-family="Times,serif" font-size="14.00">local_file.nginx_role_id</text>
</g>
<!-- [root] provider[&quot;registry.terraform.io/hashicorp/local&quot;] -->
<g id="node8" class="node">
<title>[root] provider[&quot;registry.terraform.io/hashicorp/local&quot;]</title>
<polygon fill="none" stroke="black" points="274.01,-324 16.79,-306 274.01,-288 531.24,-306 274.01,-324"/>
<text text-anchor="middle" x="274.01" y="-302.3" font-family="Times,serif" font-size="14.00">provider[&quot;registry.terraform.io/hashicorp/local&quot;]</text>
</g>
<!-- [root] local_file.nginx_role_id (expand)&#45;&gt;[root] provider[&quot;registry.terraform.io/hashicorp/local&quot;] -->
<g id="edge5" class="edge">
<title>[root] local_file.nginx_role_id (expand)&#45;&gt;[root] provider[&quot;registry.terraform.io/hashicorp/local&quot;]</title>
<path fill="none" stroke="black" d="M329.72,-359.7C320.24,-350.73 308.53,-339.65 298.3,-329.98"/>
<polygon fill="black" stroke="black" points="300.5,-327.24 290.83,-322.91 295.69,-332.32 300.5,-327.24"/>
</g>
<!-- [root] vault_approle_auth_backend_role.entity&#45;role (expand) -->
<g id="node20" class="node">
<title>[root] vault_approle_auth_backend_role.entity&#45;role (expand)</title>
<polygon fill="none" stroke="black" points="849.01,-252 589.01,-252 589.01,-216 849.01,-216 849.01,-252"/>
<text text-anchor="middle" x="719.01" y="-230.3" font-family="Times,serif" font-size="14.00">vault_approle_auth_backend_role.entity&#45;role</text>
</g>
<!-- [root] local_file.nginx_role_id (expand)&#45;&gt;[root] vault_approle_auth_backend_role.entity&#45;role (expand) -->
<g id="edge6" class="edge">
<title>[root] local_file.nginx_role_id (expand)&#45;&gt;[root] vault_approle_auth_backend_role.entity&#45;role (expand)</title>
<path fill="none" stroke="black" d="M274.96,-376.29C185.49,-373.69 41.67,-363.31 8.01,-324 -2.39,-311.85 -2.87,-299.73 8.01,-288 45.93,-247.15 382.46,-237.55 578.64,-235.44"/>
<polygon fill="black" stroke="black" points="578.77,-238.94 588.74,-235.34 578.7,-231.94 578.77,-238.94"/>
</g>
<!-- [root] local_file.nginx_secret_id (expand) -->
<g id="node4" class="node">
<title>[root] local_file.nginx_secret_id (expand)</title>
<polygon fill="none" stroke="black" points="665.51,-396 508.51,-396 508.51,-360 665.51,-360 665.51,-396"/>
<text text-anchor="middle" x="587.01" y="-374.3" font-family="Times,serif" font-size="14.00">local_file.nginx_secret_id</text>
</g>
<!-- [root] local_file.nginx_secret_id (expand)&#45;&gt;[root] provider[&quot;registry.terraform.io/hashicorp/local&quot;] -->
<g id="edge7" class="edge">
<title>[root] local_file.nginx_secret_id (expand)&#45;&gt;[root] provider[&quot;registry.terraform.io/hashicorp/local&quot;]</title>
<path fill="none" stroke="black" d="M510.85,-359.97C459.38,-348.46 392.02,-333.39 342.29,-322.27"/>
<polygon fill="black" stroke="black" points="342.8,-318.8 332.28,-320.03 341.27,-325.63 342.8,-318.8"/>
</g>
<!-- [root] vault_approle_auth_backend_role_secret_id.entity&#45;role&#45;secret&#45;id (expand) -->
<g id="node21" class="node">
<title>[root] vault_approle_auth_backend_role_secret_id.entity&#45;role&#45;secret&#45;id (expand)</title>
<polygon fill="none" stroke="black" points="916.51,-324 549.51,-324 549.51,-288 916.51,-288 916.51,-324"/>
<text text-anchor="middle" x="733.01" y="-302.3" font-family="Times,serif" font-size="14.00">vault_approle_auth_backend_role_secret_id.entity&#45;role&#45;secret&#45;id</text>
</g>
<!-- [root] local_file.nginx_secret_id (expand)&#45;&gt;[root] vault_approle_auth_backend_role_secret_id.entity&#45;role&#45;secret&#45;id (expand) -->
<g id="edge8" class="edge">
<title>[root] local_file.nginx_secret_id (expand)&#45;&gt;[root] vault_approle_auth_backend_role_secret_id.entity&#45;role&#45;secret&#45;id (expand)</title>
<path fill="none" stroke="black" d="M622.73,-359.88C642.51,-350.39 667.29,-338.51 688.34,-328.42"/>
<polygon fill="black" stroke="black" points="689.91,-331.55 697.41,-324.07 686.88,-325.24 689.91,-331.55"/>
</g>
<!-- [root] output.entity_token -->
<g id="node5" class="node">
<title>[root] output.entity_token</title>
<polygon fill="none" stroke="black" points="1126.01,-396 1010.01,-396 1010.01,-360 1132.01,-360 1132.01,-390 1126.01,-396"/>
<polyline fill="none" stroke="black" points="1126.01,-396 1126.01,-390 "/>
<polyline fill="none" stroke="black" points="1132.01,-390 1126.01,-390 "/>
<text text-anchor="middle" x="1071.01" y="-374.3" font-family="Times,serif" font-size="14.00">output.entity_token</text>
</g>
<!-- [root] vault_token.entity_token (expand) -->
<g id="node32" class="node">
<title>[root] vault_token.entity_token (expand)</title>
<polygon fill="none" stroke="black" points="1353.01,-324 1201.01,-324 1201.01,-288 1353.01,-288 1353.01,-324"/>
<text text-anchor="middle" x="1277.01" y="-302.3" font-family="Times,serif" font-size="14.00">vault_token.entity_token</text>
</g>
<!-- [root] output.entity_token&#45;&gt;[root] vault_token.entity_token (expand) -->
<g id="edge17" class="edge">
<title>[root] output.entity_token&#45;&gt;[root] vault_token.entity_token (expand)</title>
<path fill="none" stroke="black" d="M1121.14,-359.97C1150.05,-350.14 1186.58,-337.73 1217.01,-327.39"/>
<polygon fill="black" stroke="black" points="1218.32,-330.64 1226.66,-324.11 1216.07,-324.01 1218.32,-330.64"/>
</g>
<!-- [root] output.role_ids -->
<g id="node6" class="node">
<title>[root] output.role_ids</title>
<polygon fill="none" stroke="black" points="948.01,-396 856.01,-396 856.01,-360 954.01,-360 954.01,-390 948.01,-396"/>
<polyline fill="none" stroke="black" points="948.01,-396 948.01,-390 "/>
<polyline fill="none" stroke="black" points="954.01,-390 948.01,-390 "/>
<text text-anchor="middle" x="905.01" y="-374.3" font-family="Times,serif" font-size="14.00">output.role_ids</text>
</g>
<!-- [root] output.role_ids&#45;&gt;[root] vault_approle_auth_backend_role.entity&#45;role (expand) -->
<g id="edge18" class="edge">
<title>[root] output.role_ids&#45;&gt;[root] vault_approle_auth_backend_role.entity&#45;role (expand)</title>
<path fill="none" stroke="black" d="M916.76,-359.8C928.38,-340.44 942.27,-308.94 926.01,-288 914.84,-273.61 881.77,-262.46 845.25,-254.18"/>
<polygon fill="black" stroke="black" points="845.9,-250.74 835.39,-252.03 844.41,-257.58 845.9,-250.74"/>
</g>
<!-- [root] output.secret_ids -->
<g id="node7" class="node">
<title>[root] output.secret_ids</title>
<polygon fill="none" stroke="black" points="820.51,-396 717.51,-396 717.51,-360 826.51,-360 826.51,-390 820.51,-396"/>
<polyline fill="none" stroke="black" points="820.51,-396 820.51,-390 "/>
<polyline fill="none" stroke="black" points="826.51,-390 820.51,-390 "/>
<text text-anchor="middle" x="772.01" y="-374.3" font-family="Times,serif" font-size="14.00">output.secret_ids</text>
</g>
<!-- [root] output.secret_ids&#45;&gt;[root] vault_approle_auth_backend_role_secret_id.entity&#45;role&#45;secret&#45;id (expand) -->
<g id="edge19" class="edge">
<title>[root] output.secret_ids&#45;&gt;[root] vault_approle_auth_backend_role_secret_id.entity&#45;role&#45;secret&#45;id (expand)</title>
<path fill="none" stroke="black" d="M762.37,-359.7C757.89,-351.64 752.46,-341.89 747.49,-332.98"/>
<polygon fill="black" stroke="black" points="750.47,-331.14 742.54,-324.1 744.35,-334.54 750.47,-331.14"/>
</g>
<!-- [root] provider[&quot;registry.terraform.io/hashicorp/time&quot;] -->
<g id="node9" class="node">
<title>[root] provider[&quot;registry.terraform.io/hashicorp/time&quot;]</title>
<polygon fill="none" stroke="black" points="2197.01,-180 1941.46,-162 2197.01,-144 2452.57,-162 2197.01,-180"/>
<text text-anchor="middle" x="2197.01" y="-158.3" font-family="Times,serif" font-size="14.00">provider[&quot;registry.terraform.io/hashicorp/time&quot;]</text>
</g>
<!-- [root] time_sleep.wait_2_seconds (expand) -->
<g id="node11" class="node">
<title>[root] time_sleep.wait_2_seconds (expand)</title>
<polygon fill="none" stroke="black" points="2107.01,-252 1941.01,-252 1941.01,-216 2107.01,-216 2107.01,-252"/>
<text text-anchor="middle" x="2024.01" y="-230.3" font-family="Times,serif" font-size="14.00">time_sleep.wait_2_seconds</text>
</g>
<!-- [root] time_sleep.wait_2_seconds (expand)&#45;&gt;[root] provider[&quot;registry.terraform.io/hashicorp/time&quot;] -->
<g id="edge32" class="edge">
<title>[root] time_sleep.wait_2_seconds (expand)&#45;&gt;[root] provider[&quot;registry.terraform.io/hashicorp/time&quot;]</title>
<path fill="none" stroke="black" d="M2066.33,-215.88C2092.17,-205.42 2125.2,-192.06 2151.58,-181.38"/>
<polygon fill="black" stroke="black" points="2153.02,-184.58 2160.98,-177.58 2150.39,-178.09 2153.02,-184.58"/>
</g>
<!-- [root] var.approle_mount_path -->
<g id="node12" class="node">
<title>[root] var.approle_mount_path</title>
<polygon fill="none" stroke="black" points="759.51,-108 616.51,-108 616.51,-72 765.51,-72 765.51,-102 759.51,-108"/>
<polyline fill="none" stroke="black" points="759.51,-108 759.51,-102 "/>
<polyline fill="none" stroke="black" points="765.51,-102 759.51,-102 "/>
<text text-anchor="middle" x="691.01" y="-86.3" font-family="Times,serif" font-size="14.00">var.approle_mount_path</text>
</g>
<!-- [root] var.create_entity_token -->
<g id="node13" class="node">
<title>[root] var.create_entity_token</title>
<polygon fill="none" stroke="black" points="1223.51,-252 1086.51,-252 1086.51,-216 1229.51,-216 1229.51,-246 1223.51,-252"/>
<polyline fill="none" stroke="black" points="1223.51,-252 1223.51,-246 "/>
<polyline fill="none" stroke="black" points="1229.51,-246 1223.51,-246 "/>
<text text-anchor="middle" x="1158.01" y="-230.3" font-family="Times,serif" font-size="14.00">var.create_entity_token</text>
</g>
<!-- [root] var.entities -->
<g id="node14" class="node">
<title>[root] var.entities</title>
<polygon fill="none" stroke="black" points="1416.01,-180 1346.01,-180 1346.01,-144 1422.01,-144 1422.01,-174 1416.01,-180"/>
<polyline fill="none" stroke="black" points="1416.01,-180 1416.01,-174 "/>
<polyline fill="none" stroke="black" points="1422.01,-174 1416.01,-174 "/>
<text text-anchor="middle" x="1384.01" y="-158.3" font-family="Times,serif" font-size="14.00">var.entities</text>
</g>
<!-- [root] var.kv_version -->
<g id="node16" class="node">
<title>[root] var.kv_version</title>
<polygon fill="none" stroke="black" points="1778.51,-36 1687.51,-36 1687.51,0 1784.51,0 1784.51,-30 1778.51,-36"/>
<polyline fill="none" stroke="black" points="1778.51,-36 1778.51,-30 "/>
<polyline fill="none" stroke="black" points="1784.51,-30 1778.51,-30 "/>
<text text-anchor="middle" x="1736.01" y="-14.3" font-family="Times,serif" font-size="14.00">var.kv_version</text>
</g>
<!-- [root] var.postgres_ttl -->
<g id="node18" class="node">
<title>[root] var.postgres_ttl</title>
<polygon fill="none" stroke="black" points="1841.01,-252 1747.01,-252 1747.01,-216 1847.01,-216 1847.01,-246 1841.01,-252"/>
<polyline fill="none" stroke="black" points="1841.01,-252 1841.01,-246 "/>
<polyline fill="none" stroke="black" points="1847.01,-246 1841.01,-246 "/>
<text text-anchor="middle" x="1797.01" y="-230.3" font-family="Times,serif" font-size="14.00">var.postgres_ttl</text>
</g>
<!-- [root] var.token_ttl -->
<g id="node19" class="node">
<title>[root] var.token_ttl</title>
<polygon fill="none" stroke="black" points="1326.51,-252 1247.51,-252 1247.51,-216 1332.51,-216 1332.51,-246 1326.51,-252"/>
<polyline fill="none" stroke="black" points="1326.51,-252 1326.51,-246 "/>
<polyline fill="none" stroke="black" points="1332.51,-246 1326.51,-246 "/>
<text text-anchor="middle" x="1290.01" y="-230.3" font-family="Times,serif" font-size="14.00">var.token_ttl</text>
</g>
<!-- [root] vault_approle_auth_backend_role.entity&#45;role (expand)&#45;&gt;[root] var.entities -->
<g id="edge33" class="edge">
<title>[root] vault_approle_auth_backend_role.entity&#45;role (expand)&#45;&gt;[root] var.entities</title>
<path fill="none" stroke="black" d="M849.27,-220.44C865.35,-218.93 881.56,-217.42 897.01,-216 1079.62,-199.28 1126.81,-208.08 1308.01,-180 1317.14,-178.59 1326.8,-176.72 1336.07,-174.74"/>
<polygon fill="black" stroke="black" points="1336.92,-178.13 1345.93,-172.56 1335.41,-171.3 1336.92,-178.13"/>
</g>
<!-- [root] vault_auth_backend.approle (expand) -->
<g id="node22" class="node">
<title>[root] vault_auth_backend.approle (expand)</title>
<polygon fill="none" stroke="black" points="804.01,-180 634.01,-180 634.01,-144 804.01,-144 804.01,-180"/>
<text text-anchor="middle" x="719.01" y="-158.3" font-family="Times,serif" font-size="14.00">vault_auth_backend.approle</text>
</g>
<!-- [root] vault_approle_auth_backend_role.entity&#45;role (expand)&#45;&gt;[root] vault_auth_backend.approle (expand) -->
<g id="edge34" class="edge">
<title>[root] vault_approle_auth_backend_role.entity&#45;role (expand)&#45;&gt;[root] vault_auth_backend.approle (expand)</title>
<path fill="none" stroke="black" d="M719.01,-215.7C719.01,-207.98 719.01,-198.71 719.01,-190.11"/>
<polygon fill="black" stroke="black" points="722.51,-190.1 719.01,-180.1 715.51,-190.1 722.51,-190.1"/>
</g>
<!-- [root] vault_policy.kv_rw_policy (expand) -->
<g id="node30" class="node">
<title>[root] vault_policy.kv_rw_policy (expand)</title>
<polygon fill="none" stroke="black" points="1299.01,-180 1137.01,-180 1137.01,-144 1299.01,-144 1299.01,-180"/>
<text text-anchor="middle" x="1218.01" y="-158.3" font-family="Times,serif" font-size="14.00">vault_policy.kv_rw_policy</text>
</g>
<!-- [root] vault_approle_auth_backend_role.entity&#45;role (expand)&#45;&gt;[root] vault_policy.kv_rw_policy (expand) -->
<g id="edge35" class="edge">
<title>[root] vault_approle_auth_backend_role.entity&#45;role (expand)&#45;&gt;[root] vault_policy.kv_rw_policy (expand)</title>
<path fill="none" stroke="black" d="M840.45,-215.97C928.7,-203.59 1046.28,-187.09 1126.64,-175.82"/>
<polygon fill="black" stroke="black" points="1127.32,-179.26 1136.74,-174.4 1126.35,-172.32 1127.32,-179.26"/>
</g>
<!-- [root] vault_policy.postgres_creds_policy (expand) -->
<g id="node31" class="node">
<title>[root] vault_policy.postgres_creds_policy (expand)</title>
<polygon fill="none" stroke="black" points="1055.01,-180 847.01,-180 847.01,-144 1055.01,-144 1055.01,-180"/>
<text text-anchor="middle" x="951.01" y="-158.3" font-family="Times,serif" font-size="14.00">vault_policy.postgres_creds_policy</text>
</g>
<!-- [root] vault_approle_auth_backend_role.entity&#45;role (expand)&#45;&gt;[root] vault_policy.postgres_creds_policy (expand) -->
<g id="edge36" class="edge">
<title>[root] vault_approle_auth_backend_role.entity&#45;role (expand)&#45;&gt;[root] vault_policy.postgres_creds_policy (expand)</title>
<path fill="none" stroke="black" d="M775.47,-215.97C808.31,-206.06 849.88,-193.51 884.33,-183.12"/>
<polygon fill="black" stroke="black" points="885.74,-186.35 894.3,-180.11 883.72,-179.65 885.74,-186.35"/>
</g>
<!-- [root] vault_approle_auth_backend_role_secret_id.entity&#45;role&#45;secret&#45;id (expand)&#45;&gt;[root] vault_approle_auth_backend_role.entity&#45;role (expand) -->
<g id="edge37" class="edge">
<title>[root] vault_approle_auth_backend_role_secret_id.entity&#45;role&#45;secret&#45;id (expand)&#45;&gt;[root] vault_approle_auth_backend_role.entity&#45;role (expand)</title>
<path fill="none" stroke="black" d="M729.55,-287.7C728.01,-279.98 726.16,-270.71 724.44,-262.11"/>
<polygon fill="black" stroke="black" points="727.83,-261.22 722.43,-252.1 720.96,-262.6 727.83,-261.22"/>
</g>
<!-- [root] vault_auth_backend.approle (expand)&#45;&gt;[root] provider[&quot;registry.terraform.io/hashicorp/vault&quot;] -->
<g id="edge38" class="edge">
<title>[root] vault_auth_backend.approle (expand)&#45;&gt;[root] provider[&quot;registry.terraform.io/hashicorp/vault&quot;]</title>
<path fill="none" stroke="black" d="M737.14,-143.84C764.45,-117.98 813.01,-72 813.01,-72 842.87,-58.06 1023.81,-40.13 1149.12,-29.1"/>
<polygon fill="black" stroke="black" points="1149.52,-32.58 1159.17,-28.22 1148.91,-25.61 1149.52,-32.58"/>
</g>
<!-- [root] vault_auth_backend.approle (expand)&#45;&gt;[root] var.approle_mount_path -->
<g id="edge39" class="edge">
<title>[root] vault_auth_backend.approle (expand)&#45;&gt;[root] var.approle_mount_path</title>
<path fill="none" stroke="black" d="M712.09,-143.7C708.94,-135.81 705.14,-126.3 701.63,-117.55"/>
<polygon fill="black" stroke="black" points="704.82,-116.09 697.86,-108.1 698.32,-118.69 704.82,-116.09"/>
</g>
<!-- [root] vault_database_secret_backend_connection.postgres (expand) -->
<g id="node23" class="node">
<title>[root] vault_database_secret_backend_connection.postgres (expand)</title>
<polygon fill="none" stroke="black" points="1729.01,-252 1427.01,-252 1427.01,-216 1729.01,-216 1729.01,-252"/>
<text text-anchor="middle" x="1578.01" y="-230.3" font-family="Times,serif" font-size="14.00">vault_database_secret_backend_connection.postgres</text>
</g>
<!-- [root] vault_mount.postgres (expand) -->
<g id="node29" class="node">
<title>[root] vault_mount.postgres (expand)</title>
<polygon fill="none" stroke="black" points="1629.01,-108 1495.01,-108 1495.01,-72 1629.01,-72 1629.01,-108"/>
<text text-anchor="middle" x="1562.01" y="-86.3" font-family="Times,serif" font-size="14.00">vault_mount.postgres</text>
</g>
<!-- [root] vault_database_secret_backend_connection.postgres (expand)&#45;&gt;[root] vault_mount.postgres (expand) -->
<g id="edge40" class="edge">
<title>[root] vault_database_secret_backend_connection.postgres (expand)&#45;&gt;[root] vault_mount.postgres (expand)</title>
<path fill="none" stroke="black" d="M1576.08,-215.87C1573.36,-191.67 1568.35,-147.21 1565.1,-118.39"/>
<polygon fill="black" stroke="black" points="1568.55,-117.73 1563.95,-108.19 1561.59,-118.52 1568.55,-117.73"/>
</g>
<!-- [root] vault_database_secret_backend_role.role (expand) -->
<g id="node24" class="node">
<title>[root] vault_database_secret_backend_role.role (expand)</title>
<polygon fill="none" stroke="black" points="1697.51,-324 1458.51,-324 1458.51,-288 1697.51,-288 1697.51,-324"/>
<text text-anchor="middle" x="1578.01" y="-302.3" font-family="Times,serif" font-size="14.00">vault_database_secret_backend_role.role</text>
</g>
<!-- [root] vault_database_secret_backend_role.role (expand)&#45;&gt;[root] var.entities -->
<g id="edge41" class="edge">
<title>[root] vault_database_secret_backend_role.role (expand)&#45;&gt;[root] var.entities</title>
<path fill="none" stroke="black" d="M1481.2,-287.95C1458.28,-280.12 1435.46,-268.68 1418.01,-252 1400.89,-235.63 1392.28,-209.71 1388.02,-190.06"/>
<polygon fill="black" stroke="black" points="1391.45,-189.32 1386.12,-180.16 1384.57,-190.64 1391.45,-189.32"/>
</g>
<!-- [root] vault_database_secret_backend_role.role (expand)&#45;&gt;[root] var.postgres_ttl -->
<g id="edge42" class="edge">
<title>[root] vault_database_secret_backend_role.role (expand)&#45;&gt;[root] var.postgres_ttl</title>
<path fill="none" stroke="black" d="M1631.31,-287.97C1663.34,-277.73 1704.18,-264.67 1737.3,-254.09"/>
<polygon fill="black" stroke="black" points="1738.41,-257.41 1746.87,-251.03 1736.28,-250.74 1738.41,-257.41"/>
</g>
<!-- [root] vault_database_secret_backend_role.role (expand)&#45;&gt;[root] vault_database_secret_backend_connection.postgres (expand) -->
<g id="edge43" class="edge">
<title>[root] vault_database_secret_backend_role.role (expand)&#45;&gt;[root] vault_database_secret_backend_connection.postgres (expand)</title>
<path fill="none" stroke="black" d="M1578.01,-287.7C1578.01,-279.98 1578.01,-270.71 1578.01,-262.11"/>
<polygon fill="black" stroke="black" points="1581.51,-262.1 1578.01,-252.1 1574.51,-262.1 1581.51,-262.1"/>
</g>
<!-- [root] vault_generic_secret.example (expand) -->
<g id="node25" class="node">
<title>[root] vault_generic_secret.example (expand)</title>
<polygon fill="none" stroke="black" points="1964.51,-324 1785.51,-324 1785.51,-288 1964.51,-288 1964.51,-324"/>
<text text-anchor="middle" x="1875.01" y="-302.3" font-family="Times,serif" font-size="14.00">vault_generic_secret.example</text>
</g>
<!-- [root] vault_generic_secret.example (expand)&#45;&gt;[root] time_sleep.wait_2_seconds (expand) -->
<g id="edge44" class="edge">
<title>[root] vault_generic_secret.example (expand)&#45;&gt;[root] time_sleep.wait_2_seconds (expand)</title>
<path fill="none" stroke="black" d="M1911.46,-287.88C1931.65,-278.39 1956.94,-266.51 1978.42,-256.42"/>
<polygon fill="black" stroke="black" points="1980.12,-259.49 1987.68,-252.07 1977.14,-253.15 1980.12,-259.49"/>
</g>
<!-- [root] vault_generic_secret.example (expand)&#45;&gt;[root] var.entities -->
<g id="edge45" class="edge">
<title>[root] vault_generic_secret.example (expand)&#45;&gt;[root] var.entities</title>
<path fill="none" stroke="black" d="M1876.76,-287.72C1877.77,-267.36 1875.92,-234.03 1856.01,-216 1825.01,-187.91 1546.61,-171.05 1432.48,-165.27"/>
<polygon fill="black" stroke="black" points="1432.45,-161.76 1422.29,-164.76 1432.1,-168.75 1432.45,-161.76"/>
</g>
<!-- [root] vault_mount.kvv2 (expand) -->
<g id="node28" class="node">
<title>[root] vault_mount.kvv2 (expand)</title>
<polygon fill="none" stroke="black" points="1780.01,-108 1664.01,-108 1664.01,-72 1780.01,-72 1780.01,-108"/>
<text text-anchor="middle" x="1722.01" y="-86.3" font-family="Times,serif" font-size="14.00">vault_mount.kvv2</text>
</g>
<!-- [root] vault_generic_secret.example (expand)&#45;&gt;[root] vault_mount.kvv2 (expand) -->
<g id="edge46" class="edge">
<title>[root] vault_generic_secret.example (expand)&#45;&gt;[root] vault_mount.kvv2 (expand)</title>
<path fill="none" stroke="black" d="M1880.37,-287.97C1885.23,-269.32 1890.1,-238.99 1879.01,-216 1856.21,-168.7 1805.83,-133.76 1768.26,-113.03"/>
<polygon fill="black" stroke="black" points="1769.47,-109.71 1759.01,-108.07 1766.16,-115.88 1769.47,-109.71"/>
</g>
<!-- [root] vault_identity_entity.entity (expand) -->
<g id="node26" class="node">
<title>[root] vault_identity_entity.entity (expand)</title>
<polygon fill="none" stroke="black" points="1068.51,-252 905.51,-252 905.51,-216 1068.51,-216 1068.51,-252"/>
<text text-anchor="middle" x="987.01" y="-230.3" font-family="Times,serif" font-size="14.00">vault_identity_entity.entity</text>
</g>
<!-- [root] vault_identity_entity.entity (expand)&#45;&gt;[root] var.entities -->
<g id="edge47" class="edge">
<title>[root] vault_identity_entity.entity (expand)&#45;&gt;[root] var.entities</title>
<path fill="none" stroke="black" d="M1068.85,-217.6C1071.94,-217.05 1075,-216.52 1078.01,-216 1179.99,-198.5 1206.36,-199.3 1308.01,-180 1317.09,-178.28 1326.73,-176.26 1335.99,-174.24"/>
<polygon fill="black" stroke="black" points="1336.84,-177.63 1345.84,-172.05 1335.32,-170.8 1336.84,-177.63"/>
</g>
<!-- [root] vault_identity_entity.entity (expand)&#45;&gt;[root] vault_policy.kv_rw_policy (expand) -->
<g id="edge48" class="edge">
<title>[root] vault_identity_entity.entity (expand)&#45;&gt;[root] vault_policy.kv_rw_policy (expand)</title>
<path fill="none" stroke="black" d="M1043.23,-215.97C1075.92,-206.06 1117.32,-193.51 1151.61,-183.12"/>
<polygon fill="black" stroke="black" points="1152.99,-186.36 1161.55,-180.11 1150.96,-179.66 1152.99,-186.36"/>
</g>
<!-- [root] vault_identity_entity.entity (expand)&#45;&gt;[root] vault_policy.postgres_creds_policy (expand) -->
<g id="edge49" class="edge">
<title>[root] vault_identity_entity.entity (expand)&#45;&gt;[root] vault_policy.postgres_creds_policy (expand)</title>
<path fill="none" stroke="black" d="M978.12,-215.7C974.02,-207.73 969.07,-198.1 964.52,-189.26"/>
<polygon fill="black" stroke="black" points="967.5,-187.4 959.81,-180.1 961.27,-190.6 967.5,-187.4"/>
</g>
<!-- [root] vault_identity_entity_alias.test (expand) -->
<g id="node27" class="node">
<title>[root] vault_identity_entity_alias.test (expand)</title>
<polygon fill="none" stroke="black" points="1156.51,-324 973.51,-324 973.51,-288 1156.51,-288 1156.51,-324"/>
<text text-anchor="middle" x="1065.01" y="-302.3" font-family="Times,serif" font-size="14.00">vault_identity_entity_alias.test</text>
</g>
<!-- [root] vault_identity_entity_alias.test (expand)&#45;&gt;[root] vault_approle_auth_backend_role.entity&#45;role (expand) -->
<g id="edge50" class="edge">
<title>[root] vault_identity_entity_alias.test (expand)&#45;&gt;[root] vault_approle_auth_backend_role.entity&#45;role (expand)</title>
<path fill="none" stroke="black" d="M980.82,-287.97C930.17,-277.72 865.6,-264.66 813.25,-254.07"/>
<polygon fill="black" stroke="black" points="813.79,-250.6 803.29,-252.05 812.4,-257.46 813.79,-250.6"/>
</g>
<!-- [root] vault_identity_entity_alias.test (expand)&#45;&gt;[root] vault_identity_entity.entity (expand) -->
<g id="edge51" class="edge">
<title>[root] vault_identity_entity_alias.test (expand)&#45;&gt;[root] vault_identity_entity.entity (expand)</title>
<path fill="none" stroke="black" d="M1045.73,-287.7C1036.1,-279.05 1024.29,-268.45 1013.79,-259.03"/>
<polygon fill="black" stroke="black" points="1015.85,-256.18 1006.07,-252.1 1011.18,-261.39 1015.85,-256.18"/>
</g>
<!-- [root] vault_mount.kvv2 (expand)&#45;&gt;[root] provider[&quot;registry.terraform.io/hashicorp/vault&quot;] -->
<g id="edge52" class="edge">
<title>[root] vault_mount.kvv2 (expand)&#45;&gt;[root] provider[&quot;registry.terraform.io/hashicorp/vault&quot;]</title>
<path fill="none" stroke="black" d="M1663.8,-76.78C1655.17,-75.09 1646.37,-73.45 1638.01,-72 1546.54,-56.15 1441.65,-41.34 1367.5,-31.43"/>
<polygon fill="black" stroke="black" points="1367.62,-27.91 1357.25,-30.06 1366.7,-34.85 1367.62,-27.91"/>
</g>
<!-- [root] vault_mount.kvv2 (expand)&#45;&gt;[root] var.kv_mount_path -->
<g id="edge53" class="edge">
<title>[root] vault_mount.kvv2 (expand)&#45;&gt;[root] var.kv_mount_path</title>
<path fill="none" stroke="black" d="M1694.13,-71.88C1679.22,-62.72 1660.68,-51.34 1644.63,-41.48"/>
<polygon fill="black" stroke="black" points="1646.36,-38.44 1636.01,-36.19 1642.7,-44.41 1646.36,-38.44"/>
</g>
<!-- [root] vault_mount.kvv2 (expand)&#45;&gt;[root] var.kv_version -->
<g id="edge54" class="edge">
<title>[root] vault_mount.kvv2 (expand)&#45;&gt;[root] var.kv_version</title>
<path fill="none" stroke="black" d="M1725.47,-71.7C1727.02,-63.98 1728.87,-54.71 1730.59,-46.11"/>
<polygon fill="black" stroke="black" points="1734.06,-46.6 1732.59,-36.1 1727.2,-45.22 1734.06,-46.6"/>
</g>
<!-- [root] vault_mount.postgres (expand)&#45;&gt;[root] provider[&quot;registry.terraform.io/hashicorp/vault&quot;] -->
<g id="edge55" class="edge">
<title>[root] vault_mount.postgres (expand)&#45;&gt;[root] provider[&quot;registry.terraform.io/hashicorp/vault&quot;]</title>
<path fill="none" stroke="black" d="M1494.89,-72.85C1447.09,-61.36 1383.22,-45.99 1335.93,-34.62"/>
<polygon fill="black" stroke="black" points="1336.64,-31.19 1326.1,-32.25 1335.01,-37.99 1336.64,-31.19"/>
</g>
<!-- [root] vault_policy.kv_rw_policy (expand)&#45;&gt;[root] data.vault_policy_document.kv_rw_policy (expand) -->
<g id="edge56" class="edge">
<title>[root] vault_policy.kv_rw_policy (expand)&#45;&gt;[root] data.vault_policy_document.kv_rw_policy (expand)</title>
<path fill="none" stroke="black" d="M1231.12,-143.7C1237.41,-135.39 1245.06,-125.28 1251.98,-116.14"/>
<polygon fill="black" stroke="black" points="1254.82,-118.19 1258.06,-108.1 1249.24,-113.96 1254.82,-118.19"/>
</g>
<!-- [root] vault_policy.postgres_creds_policy (expand)&#45;&gt;[root] data.vault_policy_document.postgres_creds_policy (expand) -->
<g id="edge57" class="edge">
<title>[root] vault_policy.postgres_creds_policy (expand)&#45;&gt;[root] data.vault_policy_document.postgres_creds_policy (expand)</title>
<path fill="none" stroke="black" d="M955.71,-143.7C957.83,-135.9 960.38,-126.51 962.73,-117.83"/>
<polygon fill="black" stroke="black" points="966.13,-118.67 965.37,-108.1 959.37,-116.84 966.13,-118.67"/>
</g>
<!-- [root] vault_token.entity_token (expand)&#45;&gt;[root] var.create_entity_token -->
<g id="edge58" class="edge">
<title>[root] vault_token.entity_token (expand)&#45;&gt;[root] var.create_entity_token</title>
<path fill="none" stroke="black" d="M1247.9,-287.88C1232.34,-278.72 1213,-267.34 1196.24,-257.48"/>
<polygon fill="black" stroke="black" points="1197.63,-254.24 1187.24,-252.19 1194.08,-260.28 1197.63,-254.24"/>
</g>
<!-- [root] vault_token.entity_token (expand)&#45;&gt;[root] var.token_ttl -->
<g id="edge59" class="edge">
<title>[root] vault_token.entity_token (expand)&#45;&gt;[root] var.token_ttl</title>
<path fill="none" stroke="black" d="M1280.23,-287.7C1281.66,-279.98 1283.38,-270.71 1284.98,-262.11"/>
<polygon fill="black" stroke="black" points="1288.45,-262.58 1286.84,-252.1 1281.57,-261.3 1288.45,-262.58"/>
</g>
<!-- [root] vault_token.entity_token (expand)&#45;&gt;[root] vault_policy.kv_rw_policy (expand) -->
<g id="edge60" class="edge">
<title>[root] vault_token.entity_token (expand)&#45;&gt;[root] vault_policy.kv_rw_policy (expand)</title>
<path fill="none" stroke="black" d="M1308.59,-287.78C1321.46,-278.93 1334.96,-266.86 1342.01,-252 1348.88,-237.55 1350.83,-229.35 1342.01,-216 1332.94,-202.25 1319.47,-192.05 1304.73,-184.49"/>
<polygon fill="black" stroke="black" points="1305.95,-181.2 1295.41,-180.12 1302.97,-187.54 1305.95,-181.2"/>
</g>
<!-- [root] vault_token.entity_token (expand)&#45;&gt;[root] vault_policy.postgres_creds_policy (expand) -->
<g id="edge61" class="edge">
<title>[root] vault_token.entity_token (expand)&#45;&gt;[root] vault_policy.postgres_creds_policy (expand)</title>
<path fill="none" stroke="black" d="M1200.91,-293.15C1189.23,-291.39 1177.3,-289.62 1166.01,-288 1106.31,-279.43 936.73,-297.39 897.01,-252 879.6,-232.1 899.73,-205.88 920.18,-187.06"/>
<polygon fill="black" stroke="black" points="922.74,-189.46 927.95,-180.24 918.13,-184.2 922.74,-189.46"/>
</g>
<!-- [root] meta.count&#45;boundary (EachMode fixup) -->
<g id="node33" class="node">
<title>[root] meta.count&#45;boundary (EachMode fixup)</title>
<ellipse fill="none" stroke="black" cx="992.01" cy="-450" rx="176.27" ry="18"/>
<text text-anchor="middle" x="992.01" y="-446.3" font-family="Times,serif" font-size="14.00">[root] meta.count&#45;boundary (EachMode fixup)</text>
</g>
<!-- [root] meta.count&#45;boundary (EachMode fixup)&#45;&gt;[root] local_file.nginx_role_id (expand) -->
<g id="edge9" class="edge">
<title>[root] meta.count&#45;boundary (EachMode fixup)&#45;&gt;[root] local_file.nginx_role_id (expand)</title>
<path fill="none" stroke="black" d="M874.46,-436.53C774.56,-425.89 627.36,-410.12 499.01,-396 477.07,-393.59 453.34,-390.93 431.33,-388.46"/>
<polygon fill="black" stroke="black" points="431.68,-384.97 421.35,-387.33 430.9,-391.93 431.68,-384.97"/>
</g>
<!-- [root] meta.count&#45;boundary (EachMode fixup)&#45;&gt;[root] local_file.nginx_secret_id (expand) -->
<g id="edge10" class="edge">
<title>[root] meta.count&#45;boundary (EachMode fixup)&#45;&gt;[root] local_file.nginx_secret_id (expand)</title>
<path fill="none" stroke="black" d="M906.62,-434.24C838.82,-422.52 744.34,-406.19 675.7,-394.33"/>
<polygon fill="black" stroke="black" points="676.22,-390.87 665.77,-392.61 675.03,-397.76 676.22,-390.87"/>
</g>
<!-- [root] meta.count&#45;boundary (EachMode fixup)&#45;&gt;[root] output.entity_token -->
<g id="edge11" class="edge">
<title>[root] meta.count&#45;boundary (EachMode fixup)&#45;&gt;[root] output.entity_token</title>
<path fill="none" stroke="black" d="M1011.14,-432.05C1021.06,-423.26 1033.34,-412.38 1044.2,-402.76"/>
<polygon fill="black" stroke="black" points="1046.63,-405.28 1051.79,-396.03 1041.99,-400.04 1046.63,-405.28"/>
</g>
<!-- [root] meta.count&#45;boundary (EachMode fixup)&#45;&gt;[root] output.role_ids -->
<g id="edge12" class="edge">
<title>[root] meta.count&#45;boundary (EachMode fixup)&#45;&gt;[root] output.role_ids</title>
<path fill="none" stroke="black" d="M970.95,-432.05C959.92,-423.18 946.24,-412.17 934.2,-402.48"/>
<polygon fill="black" stroke="black" points="936.17,-399.57 926.18,-396.03 931.78,-405.03 936.17,-399.57"/>
</g>
<!-- [root] meta.count&#45;boundary (EachMode fixup)&#45;&gt;[root] output.secret_ids -->
<g id="edge13" class="edge">
<title>[root] meta.count&#45;boundary (EachMode fixup)&#45;&gt;[root] output.secret_ids</title>
<path fill="none" stroke="black" d="M940.99,-432.76C909.45,-422.73 868.73,-409.77 835.16,-399.09"/>
<polygon fill="black" stroke="black" points="836.04,-395.7 825.45,-396 833.91,-402.37 836.04,-395.7"/>
</g>
<!-- [root] meta.count&#45;boundary (EachMode fixup)&#45;&gt;[root] vault_database_secret_backend_role.role (expand) -->
<g id="edge14" class="edge">
<title>[root] meta.count&#45;boundary (EachMode fixup)&#45;&gt;[root] vault_database_secret_backend_role.role (expand)</title>
<path fill="none" stroke="black" d="M1164.35,-446.23C1339.87,-441.58 1590.54,-429.15 1621.01,-396 1638.06,-377.46 1621.42,-350.92 1604.13,-331.65"/>
<polygon fill="black" stroke="black" points="1606.44,-329 1597.02,-324.14 1601.35,-333.81 1606.44,-329"/>
</g>
<!-- [root] meta.count&#45;boundary (EachMode fixup)&#45;&gt;[root] vault_generic_secret.example (expand) -->
<g id="edge15" class="edge">
<title>[root] meta.count&#45;boundary (EachMode fixup)&#45;&gt;[root] vault_generic_secret.example (expand)</title>
<path fill="none" stroke="black" d="M1167.06,-447.7C1298.15,-443.59 1481.13,-431.17 1638.01,-396 1707.03,-380.53 1782.92,-349.34 1829.78,-328.31"/>
<polygon fill="black" stroke="black" points="1831.37,-331.43 1839.04,-324.12 1828.48,-325.05 1831.37,-331.43"/>
</g>
<!-- [root] meta.count&#45;boundary (EachMode fixup)&#45;&gt;[root] vault_identity_entity_alias.test (expand) -->
<g id="edge16" class="edge">
<title>[root] meta.count&#45;boundary (EachMode fixup)&#45;&gt;[root] vault_identity_entity_alias.test (expand)</title>
<path fill="none" stroke="black" d="M990.05,-431.83C988.7,-413.05 988.96,-382.61 1001.01,-360 1007.17,-348.45 1017.01,-338.43 1027.14,-330.3"/>
<polygon fill="black" stroke="black" points="1029.37,-333.01 1035.26,-324.2 1025.16,-327.41 1029.37,-333.01"/>
</g>
<!-- [root] provider[&quot;registry.terraform.io/hashicorp/local&quot;] (close) -->
<g id="node34" class="node">
<title>[root] provider[&quot;registry.terraform.io/hashicorp/local&quot;] (close)</title>
<ellipse fill="none" stroke="black" cx="567.01" cy="-450" rx="230.96" ry="18"/>
<text text-anchor="middle" x="567.01" y="-446.3" font-family="Times,serif" font-size="14.00">[root] provider[&quot;registry.terraform.io/hashicorp/local&quot;] (close)</text>
</g>
<!-- [root] provider[&quot;registry.terraform.io/hashicorp/local&quot;] (close)&#45;&gt;[root] local_file.nginx_role_id (expand) -->
<g id="edge20" class="edge">
<title>[root] provider[&quot;registry.terraform.io/hashicorp/local&quot;] (close)&#45;&gt;[root] local_file.nginx_role_id (expand)</title>
<path fill="none" stroke="black" d="M515.11,-432.41C483.92,-422.44 444,-409.68 411,-399.13"/>
<polygon fill="black" stroke="black" points="412.04,-395.79 401.45,-396.08 409.9,-402.46 412.04,-395.79"/>
</g>
<!-- [root] provider[&quot;registry.terraform.io/hashicorp/local&quot;] (close)&#45;&gt;[root] local_file.nginx_secret_id (expand) -->
<g id="edge21" class="edge">
<title>[root] provider[&quot;registry.terraform.io/hashicorp/local&quot;] (close)&#45;&gt;[root] local_file.nginx_secret_id (expand)</title>
<path fill="none" stroke="black" d="M571.96,-431.7C574.19,-423.9 576.87,-414.51 579.35,-405.83"/>
<polygon fill="black" stroke="black" points="582.75,-406.68 582.13,-396.1 576.01,-404.76 582.75,-406.68"/>
</g>
<!-- [root] provider[&quot;registry.terraform.io/hashicorp/time&quot;] (close) -->
<g id="node35" class="node">
<title>[root] provider[&quot;registry.terraform.io/hashicorp/time&quot;] (close)</title>
<ellipse fill="none" stroke="black" cx="1744.01" cy="-450" rx="229.36" ry="18"/>
<text text-anchor="middle" x="1744.01" y="-446.3" font-family="Times,serif" font-size="14.00">[root] provider[&quot;registry.terraform.io/hashicorp/time&quot;] (close)</text>
</g>
<!-- [root] provider[&quot;registry.terraform.io/hashicorp/time&quot;] (close)&#45;&gt;[root] time_sleep.wait_2_seconds (expand) -->
<g id="edge22" class="edge">
<title>[root] provider[&quot;registry.terraform.io/hashicorp/time&quot;] (close)&#45;&gt;[root] time_sleep.wait_2_seconds (expand)</title>
<path fill="none" stroke="black" d="M1791.68,-432.27C1841.96,-412.69 1921.1,-376.17 1974.01,-324 1991.96,-306.3 2005.4,-280.8 2013.8,-261.63"/>
<polygon fill="black" stroke="black" points="2017.09,-262.83 2017.73,-252.26 2010.63,-260.13 2017.09,-262.83"/>
</g>
<!-- [root] provider[&quot;registry.terraform.io/hashicorp/vault&quot;] (close) -->
<g id="node36" class="node">
<title>[root] provider[&quot;registry.terraform.io/hashicorp/vault&quot;] (close)</title>
<ellipse fill="none" stroke="black" cx="1381.01" cy="-378" rx="231.26" ry="18"/>
<text text-anchor="middle" x="1381.01" y="-374.3" font-family="Times,serif" font-size="14.00">[root] provider[&quot;registry.terraform.io/hashicorp/vault&quot;] (close)</text>
</g>
<!-- [root] provider[&quot;registry.terraform.io/hashicorp/vault&quot;] (close)&#45;&gt;[root] vault_approle_auth_backend_role_secret_id.entity&#45;role&#45;secret&#45;id (expand) -->
<g id="edge23" class="edge">
<title>[root] provider[&quot;registry.terraform.io/hashicorp/vault&quot;] (close)&#45;&gt;[root] vault_approle_auth_backend_role_secret_id.entity&#45;role&#45;secret&#45;id (expand)</title>
<path fill="none" stroke="black" d="M1251.83,-363.04C1151.04,-352.16 1010.25,-336.95 900.76,-325.12"/>
<polygon fill="black" stroke="black" points="900.91,-321.62 890.59,-324.02 900.16,-328.58 900.91,-321.62"/>
</g>
<!-- [root] provider[&quot;registry.terraform.io/hashicorp/vault&quot;] (close)&#45;&gt;[root] vault_database_secret_backend_role.role (expand) -->
<g id="edge24" class="edge">
<title>[root] provider[&quot;registry.terraform.io/hashicorp/vault&quot;] (close)&#45;&gt;[root] vault_database_secret_backend_role.role (expand)</title>
<path fill="none" stroke="black" d="M1427.95,-360.32C1455.66,-350.48 1490.95,-337.94 1520.35,-327.49"/>
<polygon fill="black" stroke="black" points="1521.82,-330.68 1530.07,-324.04 1519.47,-324.09 1521.82,-330.68"/>
</g>
<!-- [root] provider[&quot;registry.terraform.io/hashicorp/vault&quot;] (close)&#45;&gt;[root] vault_generic_secret.example (expand) -->
<g id="edge25" class="edge">
<title>[root] provider[&quot;registry.terraform.io/hashicorp/vault&quot;] (close)&#45;&gt;[root] vault_generic_secret.example (expand)</title>
<path fill="none" stroke="black" d="M1486.99,-361.98C1572.4,-349.88 1691.63,-332.99 1775.32,-321.13"/>
<polygon fill="black" stroke="black" points="1775.94,-324.57 1785.35,-319.71 1774.95,-317.64 1775.94,-324.57"/>
</g>
<!-- [root] provider[&quot;registry.terraform.io/hashicorp/vault&quot;] (close)&#45;&gt;[root] vault_identity_entity_alias.test (expand) -->
<g id="edge26" class="edge">
<title>[root] provider[&quot;registry.terraform.io/hashicorp/vault&quot;] (close)&#45;&gt;[root] vault_identity_entity_alias.test (expand)</title>
<path fill="none" stroke="black" d="M1308.12,-360.85C1261.57,-350.54 1200.97,-337.12 1151.91,-326.25"/>
<polygon fill="black" stroke="black" points="1152.47,-322.79 1141.95,-324.04 1150.96,-329.62 1152.47,-322.79"/>
</g>
<!-- [root] provider[&quot;registry.terraform.io/hashicorp/vault&quot;] (close)&#45;&gt;[root] vault_token.entity_token (expand) -->
<g id="edge27" class="edge">
<title>[root] provider[&quot;registry.terraform.io/hashicorp/vault&quot;] (close)&#45;&gt;[root] vault_token.entity_token (expand)</title>
<path fill="none" stroke="black" d="M1355.84,-360.05C1342.27,-350.92 1325.35,-339.53 1310.66,-329.65"/>
<polygon fill="black" stroke="black" points="1312.57,-326.71 1302.32,-324.03 1308.66,-332.52 1312.57,-326.71"/>
</g>
<!-- [root] root -->
<g id="node37" class="node">
<title>[root] root</title>
<ellipse fill="none" stroke="black" cx="1094.01" cy="-522" rx="47.39" ry="18"/>
<text text-anchor="middle" x="1094.01" y="-518.3" font-family="Times,serif" font-size="14.00">[root] root</text>
</g>
<!-- [root] root&#45;&gt;[root] meta.count&#45;boundary (EachMode fixup) -->
<g id="edge28" class="edge">
<title>[root] root&#45;&gt;[root] meta.count&#45;boundary (EachMode fixup)</title>
<path fill="none" stroke="black" d="M1072.13,-505.98C1058.4,-496.56 1040.44,-484.23 1025,-473.64"/>
<polygon fill="black" stroke="black" points="1026.95,-470.73 1016.72,-467.96 1022.99,-476.5 1026.95,-470.73"/>
</g>
<!-- [root] root&#45;&gt;[root] provider[&quot;registry.terraform.io/hashicorp/local&quot;] (close) -->
<g id="edge29" class="edge">
<title>[root] root&#45;&gt;[root] provider[&quot;registry.terraform.io/hashicorp/local&quot;] (close)</title>
<path fill="none" stroke="black" d="M1049.99,-515.15C971.27,-504.7 803.83,-482.46 688.36,-467.12"/>
<polygon fill="black" stroke="black" points="688.77,-463.64 678.4,-465.8 687.85,-470.58 688.77,-463.64"/>
</g>
<!-- [root] root&#45;&gt;[root] provider[&quot;registry.terraform.io/hashicorp/time&quot;] (close) -->
<g id="edge30" class="edge">
<title>[root] root&#45;&gt;[root] provider[&quot;registry.terraform.io/hashicorp/time&quot;] (close)</title>
<path fill="none" stroke="black" d="M1138.95,-516.16C1233.75,-505.95 1457.61,-481.84 1604.84,-465.99"/>
<polygon fill="black" stroke="black" points="1605.3,-469.46 1614.87,-464.91 1604.55,-462.5 1605.3,-469.46"/>
</g>
<!-- [root] root&#45;&gt;[root] provider[&quot;registry.terraform.io/hashicorp/vault&quot;] (close) -->
<g id="edge31" class="edge">
<title>[root] root&#45;&gt;[root] provider[&quot;registry.terraform.io/hashicorp/vault&quot;] (close)</title>
<path fill="none" stroke="black" d="M1121.79,-507.26C1171.87,-482.48 1277.61,-430.16 1337.41,-400.57"/>
<polygon fill="black" stroke="black" points="1339.19,-403.6 1346.6,-396.03 1336.08,-397.33 1339.19,-403.6"/>
</g>
</g>
</svg>
