<svg xmlns="http://www.w3.org/2000/svg" id="copy-user" viewBox="0 0 16.6 21.9">
  <path d="M6.9 9.7c1.4 0 2.6-1.2 2.6-2.6S8.3 4.4 6.9 4.4a2.6 2.6 0 0 0 0 5.3zM4.9 7c0-1.1.9-1.9 1.9-1.9 1.2 0 2 .9 2 1.9S8 9 6.9 9s-2-.9-2-2zM8.8 10.6l-.2-.1v.2l-1.8 1.8-1.8-2h-.1a4.1 4.1 0 0 0-2.2 3.7v.1h8.4v-.1a4 4 0 0 0-2.3-3.6zm-3.9.8l2 2 2-2c.8.5 1.3 1.4 1.5 2.3h-7c.2-.9.7-1.8 1.5-2.3z"/>
  <path d="M14.4 3.9H13V2.5c0-.9-.8-1.7-1.7-1.7h-9C1.4.8.6 1.6.6 2.5v13.9c0 .9.8 1.7 1.7 1.7h1.4v1.4c0 .9.8 1.7 1.7 1.7h9c.9 0 1.7-.7 1.7-1.7V5.6c-.1-.9-.8-1.7-1.7-1.7zm.9 1.7v13.9c0 .5-.4.9-.9.9h-9a.9.9 0 0 1-.9-.9v-.9h6.9c1.2 0 2.2-1 2.2-2.2V4.6h.9c.4 0 .8.5.8 1zm-4 11.7h-9a.9.9 0 0 1-.9-.9V2.5c0-.5.4-.9.9-.9h9c.5 0 .9.4.9.9v13.9c0 .4-.4.9-.9.9z"/>
</svg>
